<?xml version="1.0" encoding="utf-8"?>
<!-- Generator: Adobe Illustrator 24.0.2, SVG Export Plug-In . SVG Version: 6.00 Build 0)  -->
<svg version="1.1" id="Layer_1" xmlns="http://www.w3.org/2000/svg" xmlns:xlink="http://www.w3.org/1999/xlink" x="0px" y="0px"
	 viewBox="0 0 40 40" style="enable-background:new 0 0 40 40;" xml:space="preserve">
<style type="text/css">
	.st0{stroke:#231F20;stroke-miterlimit:10;}
	.st1{fill:#BB8455;}
	.st2{fill:#A05124;}
	.st3{fill:#9C5226;}
	.st4{fill:#95522D;}
	.st5{fill:#9E5328;}
</style>
<path class="st0" d="M5.28,37.76c0,0,0.54,0.34,1.68,0l5.77-6.11c0,0,0.94,1.81,2.21,0.6l4.48-4.5l4.65,4.7c0,0,1.07,1.14,2.01-0.54
	l3.83,3.36c0,0,2.62,2.42,6.91-0.81c0,0,0.87-0.87-1.68-2.68l-4.43-4.7l1.01-1.21l-4.83-5.35l4.56-4.78l0.13-0.94l-0.94-1.07
	l4.09-4.63c0,0,1.48-5.91-2.42-6.11l-6.17,6.31l-1.14-0.94L24.28,8.5l-4.85,4.63L14.81,8.5c0,0-1.07-0.54-2.15,0.54L8.24,5.21
	c0,0-6.04-1.21-6.17,2.62l3.89,3.83l2.15,2.08c0,0-1.21,1.14-0.67,1.95s3.36,3.29,3.36,3.29l0.74,0.81L12,20.46l0.34,0.08l-4.9,4.68
	c0,0-0.47,1.28,0.6,1.88l-3.62,4.3C4.41,31.39,2.26,34.95,5.28,37.76z"/>
<polygon class="st1" points="9.99,25.96 13.92,30.08 29.05,15.13 24.57,10.84 "/>
<polygon class="st2" points="9.8,14.58 13.38,18.34 17.68,13.95 13.74,10.46 "/>
<polygon class="st3" points="21.51,26.5 25.09,30.26 29.38,25.88 25.45,22.39 "/>
<path class="st1" d="M27.83,9.9l1.43,1.52l3.4-3.13c0,0,1.07-1.43,0.45-3.4L27.83,9.9z"/>
<path class="st4" d="M8.91,11.63l1.47-1.49L7.12,6.86c0,0-1.47-1.02-3.41-0.33L8.91,11.63z"/>
<path class="st1" d="M11.31,29.68l-1.87-1.32l-3.31,3.86c0,0-0.97,1.68,0.06,3.6L11.31,29.68z"/>
<path class="st5" d="M29.03,28.53l-1.39,1.81l3.72,3.47c0,0,1.64,1.04,3.6,0.09L29.03,28.53z"/>
</svg>
